<?xml version="1.0" standalone="no"?>
<!DOCTYPE svg PUBLIC "-//W3C//DTD SVG 20010904//EN"
 "http://www.w3.org/TR/2001/REC-SVG-20010904/DTD/svg10.dtd">
<svg version="1.0" xmlns="http://www.w3.org/2000/svg"
 width="260.000000pt" height="260.000000pt" viewBox="0 0 260.000000 260.000000"
 preserveAspectRatio="xMidYMid meet">
<metadata>
Created by potrace 1.11, written by Peter Selinger 2001-2013
</metadata>
<g transform="translate(0.000000,260.000000) scale(0.100000,-0.100000)"
fill="#000000" stroke="none">
<path d="M0 1300 l0 -1300 1300 0 1300 0 0 1300 0 1300 -1300 0 -1300 0 0
-1300z m979 63 c154 -356 166 -381 200 -401 17 -9 31 -20 31 -24 0 -5 -70 -8
-155 -8 -97 0 -155 4 -155 10 0 6 13 10 29 10 51 0 57 22 26 95 l-27 65 -113
0 -112 0 -17 -45 c-10 -24 -16 -57 -14 -72 2 -23 10 -30 41 -37 65 -16 40 -26
-68 -26 -58 0 -105 3 -105 8 1 4 15 16 32 27 38 24 46 39 190 363 61 138 115
252 118 252 3 0 48 -98 99 -217z m693 196 c91 -20 149 -103 127 -183 -11 -41
-56 -82 -99 -91 -42 -9 -38 -19 13 -32 56 -15 102 -59 116 -109 20 -76 -14
-140 -97 -181 -56 -28 -60 -28 -274 -31 -152 -3 -218 0 -218 7 0 6 12 11 27
11 14 0 35 7 45 17 17 15 18 37 18 281 0 292 -2 302 -62 302 -15 0 -28 5 -28
10 0 14 365 13 432 -1z"/>
<path d="M770 1255 c-23 -53 -40 -98 -38 -101 3 -3 44 -4 91 -2 l86 3 -41 98
c-22 53 -44 97 -47 97 -4 0 -27 -43 -51 -95z"/>
<path d="M1480 1410 l0 -130 30 0 c45 0 96 24 116 55 26 40 25 126 -1 155 -25
28 -75 50 -115 50 l-30 0 0 -130z"/>
<path d="M1482 1114 l3 -139 27 -9 c40 -14 102 8 129 45 45 64 31 165 -30 209
-17 11 -53 24 -81 27 l-51 6 3 -139z"/>
</g>
</svg>
